<svg xmlns="http://www.w3.org/2000/svg" viewBox="0 0 100 100" role="img" aria-label="Multicultural Bureau of Records seal">
  <circle cx="50" cy="50" r="49" fill="#c69505"/>
  <circle cx="50" cy="50" r="46" fill="#112e51"/>
  <circle cx="50" cy="50" r="43" fill="none" stroke="#ffbe2e" stroke-width="0.4"/>
  <path id="mbr-arc-top" d="M 16,52 A 34,34 0 0 1 84,52" fill="none"/>
  <path id="mbr-arc-bot" d="M 18,56 A 32,32 0 0 0 82,56" fill="none"/>
  <text font-family="'Source Serif Pro', Georgia, serif" font-size="6.8" font-weight="700" fill="#ffbe2e" letter-spacing="0.5">
    <textPath href="#mbr-arc-top" startOffset="50%" text-anchor="middle">MULTICULTURAL BUREAU</textPath>
  </text>
  <text font-family="'Source Serif Pro', Georgia, serif" font-size="6.5" font-weight="700" fill="#ffbe2e" letter-spacing="0.5">
    <textPath href="#mbr-arc-bot" startOffset="50%" text-anchor="middle">★  OF RECORDS  ★</textPath>
  </text>
  <circle cx="50" cy="50" r="14" fill="#ffbe2e"/>
  <circle cx="50" cy="50" r="12" fill="#112e51"/>
  <!-- Cameo of the chair: photo-traced silhouette via potrace, scaled to fit inner navy circle -->
  <g fill="#ffbe2e" transform="translate(50 50) scale(0.06) translate(-200 -200)">
    <g transform="translate(0,400) scale(0.1,-0.1)">
<path d="M317 3968 c-15 -31 -15 -35 3 -66 18 -29 18 -39 8 -105 -6 -41 -10
-188 -9 -342 2 -522 4 -539 76 -645 33 -50 37 -60 32 -102 -3 -26 -2 -50 4
-53 5 -4 9 5 9 19 0 13 4 46 9 73 19 96 31 180 41 303 14 159 43 310 79 420
16 48 32 104 36 126 3 21 14 57 24 79 30 63 54 144 48 159 -5 12 16 92 38 149
16 39 -379 24 -398 -15z"/>
<path d="M3220 3994 c0 -4 8 -21 19 -38 10 -17 24 -49 31 -71 7 -22 19 -49 26
-60 7 -11 20 -52 29 -90 9 -38 25 -88 36 -112 11 -23 21 -56 23 -73 2 -16 8
-35 13 -42 24 -31 43 -123 53 -258 13 -166 37 -357 52 -415 6 -22 12 -49 13
-60 4 -34 5 -35 16 -35 6 0 9 10 7 23 -1 12 3 36 9 52 19 48 33 143 33 225 0
42 7 102 15 134 12 45 14 86 9 175 -6 107 -5 120 16 166 27 59 23 136 -10 200
-29 56 -22 102 38 235 8 19 17 38 19 43 2 4 -97 7 -221 7 -124 0 -226 -3 -226
-6z"/>
<path d="M1680 2942 c0 -16 45 -51 75 -58 30 -7 30 -7 10 16 -29 33 -85 60
-85 42z"/>
<path d="M1155 2913 c-89 -21 -213 -88 -240 -129 -33 -50 3 -97 45 -59 10 9
37 22 59 29 31 9 46 21 59 45 45 87 123 88 101 2 -8 -34 -9 -55 -3 -61 15 -15
130 -16 148 -1 24 20 19 31 -14 31 -23 0 -33 6 -42 26 -15 32 3 47 50 40 51
-8 104 52 65 72 -19 10 -193 13 -228 5z"/>
<path d="M2598 2903 c-36 -4 -55 -23 -23 -23 10 0 15 -11 15 -35 0 -19 2 -35
4 -35 1 0 17 5 34 11 34 12 92 -10 92 -35 0 -23 31 -76 41 -70 15 9 0 62 -31
108 -51 74 75 65 144 -11 49 -54 83 -73 131 -73 44 0 46 17 6 62 -79 89 -213
122 -413 101z"/>
<path d="M2547 2773 c-13 -12 -7 -43 7 -43 19 0 28 14 20 34 -7 17 -16 20 -27
9z"/>
<path d="M2607 2755 c-29 -21 48 -53 91 -38 23 9 13 33 -14 33 -14 0 -33 4
-42 9 -11 6 -23 5 -35 -4z"/>
<path d="M280 2573 c2 -22 37 -78 50 -78 19 0 25 48 8 62 -18 15 -58 26 -58
16z"/>
<path d="M1682 2258 c-45 -45 80 -158 173 -158 13 0 27 -4 30 -10 19 -31 34
-8 18 28 -46 102 -176 185 -221 140z"/>
<path d="M2161 2247 c-39 -14 -77 -58 -68 -80 18 -48 217 -8 217 43 0 36 -91
59 -149 37z"/>
<path d="M1560 2111 c0 -15 30 -41 46 -41 19 0 18 14 -4 33 -20 19 -42 22 -42
8z"/>
<path d="M2171 2000 c-7 -22 -16 -30 -35 -30 -16 0 -27 -7 -31 -21 -6 -17 -12
-20 -38 -15 -16 3 -46 1 -65 -6 -33 -12 -35 -12 -64 25 -22 27 -38 37 -58 37
-16 0 -42 8 -58 17 -28 16 -35 16 -133 -5 -57 -13 -115 -25 -128 -28 -17 -4
-22 -10 -18 -24 4 -14 -3 -21 -24 -29 -16 -5 -29 -17 -29 -25 0 -9 -4 -16 -10
-16 -5 0 -10 5 -10 10 0 32 -89 -27 -125 -83 -15 -22 -40 -51 -56 -65 -16 -13
-29 -29 -29 -35 0 -6 -10 -21 -21 -33 -21 -22 -29 -48 -49 -169 -6 -33 -20
-93 -31 -133 -19 -67 -19 -77 -6 -111 16 -40 7 -71 -34 -116 -10 -11 -22 -32
-27 -46 -19 -49 -134 -93 -152 -59 -13 24 -42 26 -60 5 -20 -24 -67 -19 -86
10 -13 20 -14 28 -4 40 29 34 -2 98 -53 110 -18 5 -32 18 -41 40 -14 33 -84
79 -108 70 -34 -12 -69 54 -61 113 5 40 4 43 -27 55 -39 17 -70 79 -70 141 0
52 -11 116 -19 116 -21 -1 -64 -99 -66 -150 -2 -30 -10 -82 -19 -114 -22 -82
-38 -222 -31 -267 4 -22 2 -40 -4 -44 -17 -10 -13 -70 7 -96 28 -36 52 -105
52 -148 0 -23 8 -48 20 -64 11 -14 20 -35 20 -47 0 -25 15 -57 42 -86 10 -12
32 -59 49 -105 17 -46 37 -100 45 -119 7 -19 13 -42 14 -50 0 -9 7 -25 15 -35
8 -11 28 -37 45 -59 16 -21 30 -46 30 -55 0 -10 7 -26 15 -37 8 -10 15 -32 15
-48 0 -17 12 -42 30 -63 17 -19 34 -48 37 -65 4 -22 15 -34 38 -44 18 -7 35
-20 38 -29 12 -31 2395 -22 2403 10 3 13 15 27 26 31 11 3 24 18 29 32 5 15
34 47 64 72 30 25 55 52 55 61 0 23 21 39 50 39 19 0 30 8 39 27 13 28 13 28
31 3 41 -55 52 -63 61 -49 14 23 10 38 -16 61 -39 33 -35 96 8 143 58 64 83
119 67 150 -10 19 -11 28 -2 37 7 7 12 22 12 34 0 13 9 38 20 57 31 52 51 140
43 192 -5 41 -4 45 15 45 34 0 45 54 12 63 -32 8 -26 39 8 36 36 -4 57 8 42
26 -12 14 -22 119 -20 208 1 64 -6 69 -40 32 -20 -21 -22 -29 -13 -44 10 -15
8 -22 -6 -35 -18 -17 -41 -6 -41 20 0 6 -7 15 -16 18 -19 7 -16 11 59 86 50
49 47 100 -5 100 -23 0 -29 4 -25 18 2 9 -3 30 -10 45 -9 19 -12 42 -8 67 7
42 -8 62 -24 32 -6 -11 -7 -22 -4 -26 14 -13 -20 -118 -41 -126 -17 -7 -18 -9
-4 -9 25 -1 40 -37 32 -74 -9 -46 -14 -50 -34 -32 -36 33 -115 7 -115 -38 0
-39 -38 -73 -69 -61 -7 3 -18 -7 -24 -21 -13 -29 -33 -32 -66 -9 -42 27 -40
-2 5 -73 12 -20 11 -27 -6 -59 -10 -19 -18 -51 -17 -69 2 -18 -2 -36 -8 -40
-6 -4 -10 8 -10 30 0 94 -70 141 -84 56 -11 -72 -52 -71 -79 2 -3 9 -11 17
-17 17 -16 0 -12 -30 5 -36 21 -9 19 -22 -11 -66 -25 -36 -28 -37 -45 -22 -9
8 -29 17 -44 18 -51 6 -118 96 -145 196 -6 21 -22 53 -37 71 -30 35 -50 134
-31 156 11 14 9 33 -20 140 -40 148 -164 331 -235 348 -16 4 -50 26 -77 50
-27 24 -57 46 -67 49 -17 5 -165 26 -183 26 -4 0 -13 -13 -19 -30z m52 -317
c45 -16 49 -16 76 0 74 44 212 -23 256 -125 11 -24 31 -58 47 -75 34 -41 49
-95 49 -183 0 -53 5 -75 20 -94 10 -13 19 -34 19 -46 0 -11 6 -33 13 -48 18
-36 11 -123 -9 -115 -9 3 -14 -2 -14 -16 0 -12 -9 -30 -19 -40 -11 -11 -21
-27 -23 -38 -2 -14 -14 -19 -52 -21 -42 -3 -47 -6 -43 -23 3 -10 1 -22 -5 -25
-6 -4 -8 -22 -5 -40 5 -32 4 -34 -23 -34 -15 0 -31 -6 -34 -12 -5 -10 -7 -10
-12 0 -3 6 -10 12 -16 12 -6 0 -17 8 -24 18 -12 16 -13 16 -14 0 -1 -44 -40
-26 -40 18 0 12 -6 24 -13 27 -33 12 -57 74 -37 92 23 21 22 136 -1 144 -7 2
-42 33 -77 68 -78 78 -96 86 -173 74 -45 -8 -65 -7 -86 4 -36 18 -103 -2 -115
-34 -10 -27 -32 -27 -50 1 -19 28 -58 -40 -58 -103 0 -32 -6 -46 -31 -68 -26
-24 -30 -33 -24 -63 10 -51 -80 -154 -116 -133 -13 8 -11 45 2 45 17 0 5 45
-13 48 -11 2 -27 -12 -44 -37 -32 -49 -38 -50 -73 -12 -14 15 -37 32 -50 36
-19 6 -22 12 -17 36 5 26 2 31 -22 40 -83 31 -108 117 -72 249 6 19 10 58 11
85 1 97 31 184 72 208 22 13 42 34 51 56 18 47 136 112 167 93 10 -7 28 -12
40 -12 21 0 21 -1 6 -18 -10 -10 -17 -22 -17 -27 0 -18 -34 -45 -57 -45 -17 0
-23 -6 -23 -23 0 -16 -9 -28 -25 -35 -14 -6 -25 -18 -25 -25 0 -8 -9 -22 -20
-32 -44 -40 2 -80 71 -61 43 11 44 16 28 82 -13 50 5 84 44 84 11 0 35 16 54
35 35 37 61 43 92 23 15 -9 24 -7 49 10 16 12 34 22 39 22 5 0 24 13 43 30 19
16 44 29 55 30 11 0 27 4 34 9 22 14 180 3 234 -16z m-413 -28 c0 -9 -9 -15
-25 -15 -16 0 -25 6 -25 15 0 9 9 15 25 15 16 0 25 -6 25 -15z m115 -645 c9
-15 -4 -50 -20 -50 -19 0 -27 17 -20 40 7 21 30 27 40 10z m1220 -98 c-10 -10
-35 28 -35 52 0 17 4 15 21 -12 12 -18 18 -36 14 -40z m-1144 15 c43 -23 43
-24 55 -98 6 -41 19 -89 28 -107 21 -41 22 -69 1 -52 -22 18 -74 -38 -82 -87
-7 -44 -20 -73 -33 -73 -5 0 -3 15 4 33 24 57 8 121 -31 125 -18 2 -34 10 -38
20 -12 31 -18 154 -8 160 5 4 20 28 32 55 13 26 24 47 25 47 2 0 23 -10 47
-23z m270 -19 c6 -86 -11 -151 -36 -142 -8 4 -18 -1 -21 -10 -19 -49 -70 -10
-53 41 9 29 13 33 21 19 20 -36 58 17 58 84 0 21 29 29 31 8z m-97 -34 c11
-28 7 -35 -16 -32 -30 4 -39 48 -10 48 11 0 23 -7 26 -16z m86 -159 c0 -28 -4
-35 -19 -35 -29 0 -34 17 -14 45 25 34 33 31 33 -10z m22 -67 c-7 -7 -12 -25
-12 -40 0 -36 -17 -36 -26 -1 -5 19 -2 30 11 40 23 16 43 17 27 1z"/>
<path d="M2270 1591 c0 -11 25 -21 55 -21 13 0 29 -10 39 -25 16 -24 46 -35
46 -17 0 11 -30 37 -52 45 -10 4 -18 11 -18 17 0 5 -16 10 -35 10 -19 0 -35
-4 -35 -9z"/>
<path d="M2418 1509 c-10 -5 -18 -21 -18 -34 0 -13 -5 -36 -12 -50 -14 -31 -4
-44 37 -45 28 -1 135 11 135 14 0 3 -121 126 -123 126 -1 0 -10 -5 -19 -11z"/>
<path d="M1656 1031 c-33 -35 -29 -74 7 -69 19 3 22 8 19 41 -3 34 -2 37 23
37 15 0 24 4 20 10 -11 18 -41 10 -69 -19z"/>
<path d="M3104 1196 c-6 -17 2 -36 17 -36 12 0 12 37 -1 45 -6 3 -13 -1 -16
-9z"/>
<path d="M528 128 c-52 -94 -58 -128 -24 -128 47 0 88 109 52 139 -12 10 -17
8 -28 -11z"/>
    </g>
  </g>
</svg>
