<svg xmlns="http://www.w3.org/2000/svg" viewBox="0 0 100 100" role="img" aria-label="Multicultural Bureau of Records seal">
  <circle cx="50" cy="50" r="49" fill="#c69505"/>
  <circle cx="50" cy="50" r="46" fill="#112e51"/>
  <circle cx="50" cy="50" r="43" fill="none" stroke="#ffbe2e" stroke-width="0.4"/>
  <path id="mbr-arc-top" d="M 16,52 A 34,34 0 0 1 84,52" fill="none"/>
  <path id="mbr-arc-bot" d="M 18,56 A 32,32 0 0 0 82,56" fill="none"/>
  <text font-family="'Source Serif Pro', Georgia, serif" font-size="6.8" font-weight="700" fill="#ffbe2e" letter-spacing="0.5">
    <textPath href="#mbr-arc-top" startOffset="50%" text-anchor="middle">MULTICULTURAL BUREAU</textPath>
  </text>
  <text font-family="'Source Serif Pro', Georgia, serif" font-size="6.5" font-weight="700" fill="#ffbe2e" letter-spacing="0.5">
    <textPath href="#mbr-arc-bot" startOffset="50%" text-anchor="middle">★  OF RECORDS  ★</textPath>
  </text>
  <circle cx="50" cy="50" r="14" fill="#ffbe2e"/>
  <circle cx="50" cy="50" r="12" fill="#112e51"/>
  <!-- Cameo silhouette of the chair, facing right (placeholder pending real likeness) -->
  <path d="M 50,40 C 53.2,40 55.2,41.6 55.7,44.4 C 56,45.6 56.1,46.5 55.5,47.4 L 57.2,48.1 L 55.3,48.9 C 55,50.7 53.6,51.6 51.3,51.9 L 51.3,53.4 C 53.6,53.9 55.8,54.9 57.5,56.6 L 59.4,60.4 L 40.6,60.4 L 42.5,56.6 C 44.2,54.9 46.4,53.9 48.7,53.4 L 48.7,51.9 C 46.4,51.6 45,50.7 44.5,48.5 C 44,46.4 44,42.7 46.6,40.9 C 47.6,40.3 48.7,40 50,40 Z" fill="#ffbe2e"/>
</svg>
